<?xml version="1.0" encoding="utf-8"?>
<!-- Generator: Adobe Illustrator 22.1.0, SVG Export Plug-In . SVG Version: 6.00 Build 0)  -->
<svg version="1.1" id="Layer_1" xmlns="http://www.w3.org/2000/svg" xmlns:xlink="http://www.w3.org/1999/xlink" x="0px" y="0px"
	 viewBox="0 0 181.3 95.3" style="enable-background:new 0 0 181.3 95.3;" xml:space="preserve">
<style type="text/css">
	.st0{fill:#FFFFFF;}
	.st1{fill:#001689;}
	.st2{fill:#FFD923;}
</style>
<g>
	<g>
		<path class="st0" d="M70.9,74.4v4.5c3,0.6,6.1,1.1,9.3,1.5c2.8,0.4,5.6,0.6,8.4,0.7v-4.7c-3-0.1-6.1-0.4-9.2-0.8
			C76.5,75.4,73.6,74.9,70.9,74.4"/>
	</g>
	<g>
		<path class="st0" d="M26.3,48.5c-1.4-3.3-1.8-6.7-1.1-10.1c1.1-4.8,4.5-9.1,9.6-12.7v-1.1c-5.7,4.1-9.5,9-10.7,14.6
			c-1,4.6-0.2,9.2,2.2,13.6V48.5z"/>
	</g>
</g>
<g>
	<path class="st0" d="M68.4,15.5v-1.9c-12.4,1.3-23.3,4.7-31.2,9.6v1.2C45,19.7,55.9,16.6,68.4,15.5"/>
	<path class="st0" d="M105,15.7v2.4c10.6,2.4,19.9,6.1,27,10.6v-2.9C124.6,21.5,115.4,17.9,105,15.7"/>
	<path class="st0" d="M102.3,15.2c-2.5-0.5-5.1-0.9-7.7-1.2c-8.2-1-16.3-1.2-23.8-0.6v2c7-0.4,14.5-0.2,22.1,0.7
		c3.2,0.4,6.3,0.9,9.4,1.5V15.2z"/>
	<path class="st0" d="M28.2,51.9v4c6.9,9.8,21.6,18.2,40.2,22.5v-4.5C49.2,69.7,34.4,61.4,28.2,51.9"/>
	<path class="st0" d="M134.7,26.7v3.6c4.1,3,7.2,6.4,9.3,9.8h4.2C145.4,35.3,140.8,30.7,134.7,26.7"/>
	<path class="st0" d="M43.3,25.4v1.2c6.6-4.1,16.4-6.9,27.6-7.7v-1.8C59.8,18.2,50.1,21.1,43.3,25.4"/>
	<path class="st0" d="M38.6,50.2v3.7C45.2,61.1,57.1,67,71.7,70v-4C56.7,63.1,44.7,57.2,38.6,50.2"/>
	<path class="st0" d="M33.2,38c-1,4.7,0.3,9.4,3.7,13.8v-3.9c-2.3-3.4-3.2-7-2.3-10.6c0.8-3.5,3.2-6.6,6.7-9.3v-1.2
		C37,30,34.2,33.8,33.2,38"/>
	<path class="st0" d="M123.6,30.7v-2.8c-6.1-3.6-13.7-6.6-22.3-8.5v2.2C110.2,23.7,117.9,26.9,123.6,30.7"/>
	<path class="st0" d="M74.3,66.5v4c1.8,0.3,3.6,0.6,5.5,0.8c3,0.4,5.9,0.6,8.8,0.7v-4.2c-3.1-0.1-6.3-0.3-9.5-0.7
		C77.4,66.9,75.8,66.7,74.3,66.5"/>
	<path class="st0" d="M126,29.3v3c3.2,2.4,5.6,5.1,7.1,7.8h3.5C134.4,36.3,130.8,32.6,126,29.3"/>
	<path class="st0" d="M98.8,18.8c-2.3-0.5-4.7-0.8-7.1-1.1c-6.3-0.8-12.6-1-18.4-0.6v1.8c5.4-0.2,11,0,16.8,0.7
		c3,0.4,5.9,0.8,8.7,1.4V18.8z"/>
	<path class="st0" d="M46.3,46.2c-2.5-3-3.5-6.2-2.8-9.4c0.6-2.4,2.1-4.6,4.5-6.5V29c-3.1,2.4-5.2,5.3-5.9,8.5
		c-1,4.3,0.6,8.6,4.2,12.6V46.2z"/>
	<path class="st0" d="M50,27.6v1.3c5.3-3.4,13.4-5.6,22.6-6.2v-1.8C63.5,21.7,55.5,24,50,27.6"/>
	<path class="st0" d="M48.2,48.2V52c5.9,5.2,15.3,9.5,26.7,11.6v-4.2C63.2,57.5,53.7,53.3,48.2,48.2"/>
	<path class="st0" d="M77.2,59.8V64c0.8,0.1,1.7,0.2,2.6,0.4c3,0.4,5.9,0.6,8.8,0.6v-4.3c-3.1,0-6.2-0.2-9.5-0.6
		C78.5,60,77.8,59.9,77.2,59.8"/>
	<path class="st0" d="M117.5,30.8v3.1c2.4,2,4.2,4.1,5.2,6.3h3.5C124.6,36.8,121.6,33.6,117.5,30.8"/>
	<path class="st0" d="M115.5,29.6c-4.8-2.9-10.7-5.2-17.5-6.8V25c7.1,1.8,13.1,4.4,17.5,7.4V29.6z"/>
	<path class="st0" d="M87.8,23.1c2.6,0.3,5.2,0.7,7.7,1.3v-2.2c-2-0.4-4-0.7-6.1-1c-4.9-0.6-9.7-0.8-14.3-0.5v1.9
		C79.2,22.4,83.5,22.6,87.8,23.1"/>
	<path class="st0" d="M55.8,47.8v-3.1c-2.5-2.5-3.7-5.3-3-8.1c0.3-1.3,1-2.6,2.1-3.7v-1.3c-1.8,1.6-3,3.5-3.5,5.6
		C50.6,40.8,52.3,44.6,55.8,47.8"/>
	<path class="st0" d="M56.6,30.2v1.2c3.9-2.9,10.4-4.9,18.1-5.3v-1.4C67.3,25.3,60.8,27.3,56.6,30.2"/>
	<path class="st0" d="M94.9,28.2c5.5,1.5,10,3.7,13.1,6.2v-2.5c-3.5-2.3-8-4.2-13.1-5.5V28.2z"/>
	<path class="st0" d="M57.8,46.3v3c4.6,3.4,11.5,6.1,19.4,7.5v-3.2C69.1,52.4,62.2,49.7,57.8,46.3"/>
	<path class="st0" d="M109.8,33.2V36c1.3,1.3,2.1,2.7,2.6,4.2h3C114.5,37.7,112.5,35.3,109.8,33.2"/>
	<path class="st0" d="M92.5,27.5v-1.7c-1.7-0.4-3.5-0.7-5.3-0.9c-3.4-0.4-6.7-0.6-9.9-0.4v1.4c2.8,0,5.7,0.1,8.7,0.4
		C88.2,26.7,90.4,27.1,92.5,27.5"/>
	<path class="st0" d="M79.4,53.9L79.4,53.9l-0.1,3.2c0.2,0,0.4,0.1,0.7,0.1c2.9,0.4,5.8,0.5,8.6,0.5v-3.3
		C85.6,54.4,82.5,54.3,79.4,53.9"/>
	<path class="st0" d="M66.7,43.7v2.8c3.3,2,7.6,3.5,12.5,4.3v-3C74.2,47.1,69.8,45.6,66.7,43.7"/>
	<path class="st0" d="M61.9,36.2c0.1-0.5,0.3-1,0.6-1.5v-1.9c-1,1.1-1.7,2.3-2,3.6c-0.7,3,1,6.1,4.2,8.6v-2.8
		C62.5,40.4,61.4,38.3,61.9,36.2"/>
	<path class="st0" d="M92,30.9c3.7,1.1,6.7,2.7,8.6,4.5v-2.5c-2.3-1.6-5.2-3-8.6-4V30.9z"/>
	<path class="st0" d="M63.9,31.6v1.6c2.5-2.2,7-3.6,12.3-4v-1.8C71.1,27.9,66.7,29.4,63.9,31.6"/>
	<path class="st0" d="M102,34v3c0.7,1,1.1,2.1,1.1,3.2h2.5C105.5,38,104.2,35.8,102,34"/>
	<path class="st0" d="M89.6,30.2v-2c-1.3-0.3-2.6-0.5-4-0.7c-2.4-0.3-4.7-0.4-7-0.3V29c1.9,0,4,0.1,6.1,0.3
		C86.4,29.6,88,29.9,89.6,30.2"/>
	<path class="st0" d="M81,48v3c2.6,0.3,5.2,0.3,7.6,0.2v-3C86.2,48.3,83.6,48.3,81,48"/>
	<rect x="90.9" y="43.2" class="st0" width="58.4" height="39"/>
	<rect x="91.8" y="44" class="st1" width="56.7" height="37.3"/>
	<path class="st2" d="M120.2,48.2l-0.4,1.4h-1.5l1.2,0.9l-0.5,1.4l1.2-0.9l1.2,0.9l-0.5-1.4l1.2-0.9h-1.5L120.2,48.2z M126.7,49.8
		l-0.4,1.4h-1.5l1.2,0.9l-0.5,1.4l1.2-0.9l1.2,0.9l-0.5-1.4l1.2-0.9h-1.5L126.7,49.8z M129.7,57.8l1.2-0.9l1.2,0.9l-0.5-1.4l1.2-0.9
		h-1.5l-0.4-1.4l-0.4,1.4H129l1.2,0.9L129.7,57.8z M134.7,61.9h-1.5l-0.4-1.4l-0.4,1.4h-1.5l1.2,0.9l-0.5,1.4l1.2-0.9l1.2,0.9
		l-0.5-1.4L134.7,61.9z M131.8,68.2l-0.4-1.4l-0.4,1.4h-1.5l1.2,0.9l-0.5,1.4l1.2-0.9l1.2,0.9l-0.5-1.4l1.2-0.9H131.8z M126.7,73.1
		l-0.4-1.4l-0.4,1.4h-1.5l1.2,0.9l-0.5,1.4l1.2-0.9l1.2,0.9L127,74l1.2-0.9H126.7z M120.6,74.9l-0.4-1.4l-0.4,1.4h-1.5l1.2,0.9
		l-0.5,1.4l1.2-0.9l1.2,0.9l-0.5-1.4l1.2-0.9H120.6z M112.4,53.5l1.2-0.9l1.2,0.9l-0.5-1.4l1.2-0.9H114l-0.4-1.4l-0.4,1.4h-1.5
		l1.2,0.9L112.4,53.5z M109.4,54.2l-0.4,1.4h-1.5l1.2,0.9l-0.5,1.4l1.2-0.9l1.2,0.9l-0.5-1.4l1.2-0.9h-1.5L109.4,54.2z M107.4,63.4
		l1.2,0.9l-0.5-1.4l1.2-0.9h-1.5l-0.4-1.4L107,62h-1.5l1.2,0.9l-0.5,1.4L107.4,63.4z M109.3,68.2l-0.4-1.4l-0.4,1.4H107l1.2,0.9
		l-0.5,1.4l1.2-0.9l1.2,0.9l-0.5-1.4l1.2-0.9H109.3z M114.5,73.1l-0.4-1.4l-0.4,1.4h-1.5l1.2,0.9l-0.5,1.4l1.2-0.9l1.2,0.9l-0.5-1.4
		l1.2-0.9H114.5z"/>
</g>
</svg>
